<svg xmlns="http://www.w3.org/2000/svg" version="1.1" viewBox="0.00 0.00 200.00 200.00">
<path fill="#000000" d="
  M 12.49 124.90
  L 12.49 68.84
  A 37.60 37.60 0.0 0 1 50.09 31.24
  L 149.91 31.24
  A 37.60 37.60 0.0 0 1 187.51 68.84
  L 187.51 124.90
  A 37.60 37.60 0.0 0 1 149.91 162.50
  L 50.09 162.50
  A 37.60 37.60 0.0 0 1 12.49 124.90
  Z
  M 100.00 59.37
  Q 124.16 59.37 124.38 59.37
  Q 132.16 59.44 134.88 60.81
  Q 139.73 63.27 142.32 68.42
  A 0.62 0.61 76.7 0 0 142.87 68.76
  L 174.33 68.76
  A 0.62 0.62 0.0 0 0 174.95 68.11
  C 174.59 57.46 167.82 48.33 157.76 44.93
  Q 154.56 43.85 145.61 43.81
  Q 135.81 43.76 100.00 43.76
  Q 64.18 43.76 54.38 43.81
  Q 45.43 43.85 42.23 44.93
  C 32.17 48.33 25.40 57.46 25.04 68.11
  A 0.62 0.62 0.0 0 0 25.66 68.76
  L 57.12 68.76
  A 0.62 0.61 -76.7 0 0 57.67 68.42
  Q 60.26 63.27 65.11 60.81
  Q 67.83 59.44 75.61 59.37
  Q 75.84 59.37 100.00 59.37
  Z
  M 131.21 74.95
  A 3.07 3.07 0.0 0 0 128.14 71.88
  L 71.84 71.88
  A 3.07 3.07 0.0 0 0 68.77 74.95
  L 68.77 75.05
  A 3.07 3.07 0.0 0 0 71.84 78.12
  L 128.14 78.12
  A 3.07 3.07 0.0 0 0 131.21 75.05
  L 131.21 74.95
  Z
  M 100.01 150.00
  Q 121.04 150.00 140.88 149.99
  Q 154.75 149.99 158.42 148.61
  C 168.77 144.70 174.91 135.41 175.00 124.29
  Q 175.01 123.81 175.00 81.63
  A 0.39 0.39 0.0 0 0 174.61 81.24
  L 143.16 81.24
  A 1.09 1.08 -75.5 0 0 142.21 81.81
  Q 139.48 86.85 134.83 89.22
  Q 132.20 90.55 123.92 90.58
  Q 112.00 90.63 100.00 90.63
  Q 88.00 90.63 76.07 90.59
  Q 67.80 90.56 65.17 89.23
  Q 60.52 86.86 57.79 81.82
  A 1.09 1.08 75.5 0 0 56.84 81.25
  L 25.39 81.26
  A 0.39 0.39 0.0 0 0 25.00 81.65
  Q 25.00 123.83 25.01 124.31
  C 25.10 135.43 31.24 144.72 41.59 148.62
  Q 45.26 150.00 59.13 150.00
  Q 78.97 150.00 100.01 150.00
  Z"
/>
</svg>
