<svg xmlns="http://www.w3.org/2000/svg" version="1.1" viewBox="0.00 0.00 320.00 320.00">
<g stroke-width="2.00" fill="none" stroke-linecap="butt">
<path stroke="#85b2e6" vector-effect="non-scaling-stroke" d="
  M 279.52 240.01
  A 0.31 0.31 0.0 0 0 279.80 239.56
  L 192.27 64.54
  A 0.31 0.31 0.0 0 0 191.71 64.54
  L 136.55 174.86
  A 0.31 0.31 0.0 0 0 136.55 175.14
  L 168.90 239.84
  A 0.31 0.31 0.0 0 0 169.18 240.01
  L 279.52 240.01"
/>
<path stroke="#85b2e6" vector-effect="non-scaling-stroke" d="
  M 94.93 240.01
  A 0.33 0.33 0.0 0 0 95.22 239.83
  L 127.51 175.28
  A 0.33 0.33 0.0 0 0 127.51 174.98
  L 100.30 120.58
  A 0.33 0.33 0.0 0 0 99.70 120.58
  L 40.21 239.53
  A 0.33 0.33 0.0 0 0 40.50 240.01
  L 94.93 240.01"
/>
<path stroke="#85b2e6" vector-effect="non-scaling-stroke" d="
  M 104.22 239.54
  A 0.33 0.33 0.0 0 0 104.51 240.01
  L 159.49 240.01
  A 0.33 0.33 0.0 0 0 159.78 239.54
  L 132.30 184.58
  A 0.33 0.33 0.0 0 0 131.70 184.58
  L 104.22 239.54"
/>
</g>
<path fill="#0d66cd" d="
  M 98.48 0.00
  L 102.87 0.00
  L 216.64 0.00
  L 218.46 0.00
  L 222.43 0.00
  C 234.90 0.58 247.34 0.76 259.49 3.08
  C 279.70 6.94 296.99 20.46 307.87 37.63
  C 315.17 49.14 317.93 61.77 318.85 75.14
  Q 319.59 85.92 320.00 96.75
  L 320.00 217.13
  Q 319.87 217.56 320.00 218.00
  L 320.00 223.21
  Q 319.60 234.01 318.89 244.75
  Q 318.40 252.25 316.64 260.73
  C 314.02 273.33 307.73 284.39 299.36 293.61
  C 291.07 302.74 280.04 310.77 268.49 314.55
  Q 260.65 317.12 251.26 318.27
  Q 241.45 319.47 223.49 320.00
  L 96.64 320.00
  Q 84.28 319.58 72.00 318.54
  Q 60.49 317.56 51.27 314.46
  C 31.64 307.84 12.07 288.87 5.44 268.50
  Q 2.63 259.85 1.56 249.75
  Q 0.50 239.85 0.00 223.48
  L 0.00 96.65
  C 0.73 79.44 0.54 60.01 8.48 44.17
  C 17.53 26.08 34.34 10.47 53.96 4.69
  Q 63.45 1.90 74.51 1.20
  Q 90.26 0.20 97.15 0.00
  L 98.48 0.00
  Z
  M 279.52 240.01
  A 0.31 0.31 0.0 0 0 279.80 239.56
  L 192.27 64.54
  A 0.31 0.31 0.0 0 0 191.71 64.54
  L 136.55 174.86
  A 0.31 0.31 0.0 0 0 136.55 175.14
  L 168.90 239.84
  A 0.31 0.31 0.0 0 0 169.18 240.01
  L 279.52 240.01
  Z
  M 94.93 240.01
  A 0.33 0.33 0.0 0 0 95.22 239.83
  L 127.51 175.28
  A 0.33 0.33 0.0 0 0 127.51 174.98
  L 100.30 120.58
  A 0.33 0.33 0.0 0 0 99.70 120.58
  L 40.21 239.53
  A 0.33 0.33 0.0 0 0 40.50 240.01
  L 94.93 240.01
  Z
  M 104.22 239.54
  A 0.33 0.33 0.0 0 0 104.51 240.01
  L 159.49 240.01
  A 0.33 0.33 0.0 0 0 159.78 239.54
  L 132.30 184.58
  A 0.33 0.33 0.0 0 0 131.70 184.58
  L 104.22 239.54
  Z"
/>
<path fill="#fcfeff" d="
  M 279.52 240.01
  L 169.18 240.01
  A 0.31 0.31 0.0 0 1 168.90 239.84
  L 136.55 175.14
  A 0.31 0.31 0.0 0 1 136.55 174.86
  L 191.71 64.54
  A 0.31 0.31 0.0 0 1 192.27 64.54
  L 279.80 239.56
  A 0.31 0.31 0.0 0 1 279.52 240.01
  Z"
/>
<path fill="#fcfeff" d="
  M 94.93 240.01
  L 40.50 240.01
  A 0.33 0.33 0.0 0 1 40.21 239.53
  L 99.70 120.58
  A 0.33 0.33 0.0 0 1 100.30 120.58
  L 127.51 174.98
  A 0.33 0.33 0.0 0 1 127.51 175.28
  L 95.22 239.83
  A 0.33 0.33 0.0 0 1 94.93 240.01
  Z"
/>
<path fill="#fcfeff" d="
  M 104.22 239.54
  L 131.70 184.58
  A 0.33 0.33 0.0 0 1 132.30 184.58
  L 159.78 239.54
  A 0.33 0.33 0.0 0 1 159.49 240.01
  L 104.51 240.01
  A 0.33 0.33 0.0 0 1 104.22 239.54
  Z"
/>
</svg>
