<svg xmlns="http://www.w3.org/2000/svg" version="1.0" viewBox="0.00 0.00 24.00 24.00">
<g stroke-width="2.00" fill="none" stroke-linecap="butt">
<path stroke="#dddeec" vector-effect="non-scaling-stroke" d="
  M 21.22 10.04
  L 14.32 11.79"
/>
<path stroke="#646d77" vector-effect="non-scaling-stroke" d="
  M 14.32 11.79
  C 13.47 9.17 10.59 9.08 9.68 11.80"
/>
<path stroke="#dddeec" vector-effect="non-scaling-stroke" d="
  M 9.68 11.80
  L 2.80 9.24"
/>
<path stroke="#7a7376" vector-effect="non-scaling-stroke" d="
  M 9.68 11.80
  C 9.91 15.00 13.93 15.14 14.32 11.79"
/>
</g>
<path fill="#c7d8ed" d="
  M 21.22 10.04
  L 14.32 11.79
  C 13.47 9.17 10.59 9.08 9.68 11.80
  L 2.80 9.24
  C 1.95 4.34 4.25 2.68 8.96 2.65
  Q 15.59 2.61 18.11 2.95
  C 21.32 3.39 21.58 7.20 21.22 10.04
  Z"
/>
<path fill="#f3e4eb" d="
  M 9.68 11.80
  C 9.91 15.00 13.93 15.14 14.32 11.79
  L 21.22 10.04
  Q 21.58 16.11 21.16 18.25
  Q 20.81 20.06 18.41 21.12
  A 2.14 2.14 0.0 0 1 17.68 21.29
  Q 13.97 21.41 7.00 21.30
  Q 3.49 21.25 2.77 17.75
  Q 2.39 15.90 2.80 9.24
  L 9.68 11.80
  Z"
/>
<path fill="#010101" d="
  M 14.32 11.79
  C 13.93 15.14 9.91 15.00 9.68 11.80
  C 10.59 9.08 13.47 9.17 14.32 11.79
  Z"
/>
</svg>
