<svg xmlns="http://www.w3.org/2000/svg" version="1.1" viewBox="0.00 0.00 256.00 256.00">
<path stroke="#4e5052" stroke-width="2.00" fill="none" stroke-linecap="butt" vector-effect="non-scaling-stroke" d="
  M 172.46 15.89
  Q 172.48 15.98 172.49 16.01"
/>
<ellipse fill="#9b9d9e" cx="0.00" cy="0.00" transform="translate(82.45,15.88) rotate(-180.0)" rx="4.49" ry="0.03"/>
<path fill="#9b9d9e" d="
  M 172.46 15.89
  Q 172.48 15.98 172.49 16.01
  A 8.29 0.15 0.4 0 1 156.56 15.84
  L 156.55 15.84
  A 8.29 0.15 0.4 0 1 172.46 15.89
  Z"
/>
<path fill="#000205" d="
  M 172.49 16.01
  Q 172.48 15.98 172.46 15.89
  A 7.89 0.02 2.8 0 1 172.99 15.92
  A 9.14 0.11 5.8 0 1 173.13 15.95
  L 173.12 15.95
  A 8.31 0.14 -0.2 0 1 172.49 16.01
  Z"
/>
<circle fill="#9b9d9e" cx="74.48" cy="71.49" r="17.48"/>
<circle fill="#9b9d9e" cx="127.51" cy="71.50" r="17.49"/>
<circle fill="#9b9d9e" cx="180.51" cy="71.52" r="17.47"/>
<ellipse fill="#9b9d9e" cx="0.00" cy="0.00" transform="translate(238.29,68.59) rotate(-95.1)" rx="1.59" ry="0.19"/>
<circle fill="#000205" cx="74.49" cy="124.50" r="17.52"/>
<circle fill="#000205" cx="127.51" cy="124.51" r="17.52"/>
<circle fill="#000205" cx="180.50" cy="124.51" r="17.54"/>
<circle fill="#9b9d9e" cx="74.50" cy="177.51" r="17.49"/>
<circle fill="#9b9d9e" cx="180.49" cy="177.50" r="17.46"/>
<path fill="#9b9d9e" d="
  M 238.81 160.92
  Q 238.81 160.53 238.84 160.13
  A 0.01 0.00 31.7 0 1 238.85 160.13
  Q 238.86 160.13 238.87 160.13
  Q 238.90 160.53 238.90 160.92
  A 0.05 0.04 45.0 0 1 238.81 160.92
  Z"
/>
<circle fill="#000205" cx="127.50" cy="177.51" r="17.52"/>
<path fill="#9b9d9e" d="
  M 238.72 163.84
  Q 238.72 163.55 238.86 163.24
  A 0.02 0.01 -58.3 0 1 238.88 163.23
  Q 239.42 163.57 239.41 163.85
  A 0.35 0.34 45.6 0 1 238.72 163.84
  Z"
/>
<ellipse fill="#9b9d9e" cx="0.00" cy="0.00" transform="translate(238.80,168.25) rotate(-91.1)" rx="1.30" ry="0.17"/>
<path fill="#9b9d9e" d="
  M 238.16 178.50
  Q 237.85 178.17 238.35 177.59
  A 0.04 0.03 -49.7 0 1 238.41 177.58
  Q 238.42 177.59 238.43 177.60
  A 0.05 0.05 0.0 0 1 238.44 177.65
  L 238.34 178.44
  A 0.10 0.10 0.0 0 1 238.16 178.50
  Z"
/>
<path fill="#9b9d9e" d="
  M 238.09 180.47
  Q 238.09 180.40 238.10 180.33
  A 0.05 0.04 -54.7 0 1 238.18 180.31
  Q 238.21 180.39 238.20 180.48
  A 0.06 0.05 49.8 0 1 238.09 180.47
  Z"
/>
</svg>
